<svg width="48" height="32" viewBox="0 0 48 32" fill="none" xmlns="http://www.w3.org/2000/svg">
<g clip-path="url(#clip0_12_67)" filter="url(#filter0_d_12_67)">
<g filter="url(#filter1_d_12_67)">
<path d="M27.5013 19V10.85L24.9013 13.45L23.5013 12L28.5013 7L33.5013 12L32.1013 13.45L29.5013 10.85V19H27.5013ZM22.5013 23C21.9513 23 21.4806 22.8043 21.0893 22.413C20.6979 22.0217 20.5019 21.5507 20.5013 21V18H22.5013V21H34.5013V18H36.5013V21C36.5013 21.55 36.3056 22.021 35.9143 22.413C35.5229 22.805 35.0519 23.0007 34.5013 23H22.5013Z" fill="#739AE9"/>
</g>
</g>
<defs>
<filter id="filter0_d_12_67" x="-3.49875" y="-17" width="64" height="64" filterUnits="userSpaceOnUse" color-interpolation-filters="sRGB">
<feFlood flood-opacity="0" result="BackgroundImageFix"/>
<feColorMatrix in="SourceAlpha" type="matrix" values="0 0 0 0 0 0 0 0 0 0 0 0 0 0 0 0 0 0 127 0" result="hardAlpha"/>
<feOffset/>
<feGaussianBlur stdDeviation="10"/>
<feComposite in2="hardAlpha" operator="out"/>
<feColorMatrix type="matrix" values="0 0 0 0 0.12549 0 0 0 0 0.772549 0 0 0 0 0.576471 0 0 0 0.15 0"/>
<feBlend mode="normal" in2="BackgroundImageFix" result="effect1_dropShadow_12_67"/>
<feBlend mode="normal" in="SourceGraphic" in2="effect1_dropShadow_12_67" result="shape"/>
</filter>
<filter id="filter1_d_12_67" x="15.5013" y="2" width="26" height="26" filterUnits="userSpaceOnUse" color-interpolation-filters="sRGB">
<feFlood flood-opacity="0" result="BackgroundImageFix"/>
<feColorMatrix in="SourceAlpha" type="matrix" values="0 0 0 0 0 0 0 0 0 0 0 0 0 0 0 0 0 0 127 0" result="hardAlpha"/>
<feOffset/>
<feGaussianBlur stdDeviation="2.5"/>
<feComposite in2="hardAlpha" operator="out"/>
<feColorMatrix type="matrix" values="0 0 0 0 0.121569 0 0 0 0 0.772549 0 0 0 0 0.576471 0 0 0 0.15 0"/>
<feBlend mode="normal" in2="BackgroundImageFix" result="effect1_dropShadow_12_67"/>
<feBlend mode="normal" in="SourceGraphic" in2="effect1_dropShadow_12_67" result="shape"/>
</filter>
<clipPath id="clip0_12_67">
<rect width="24" height="24" fill="white" transform="translate(16.5013 3)"/>
</clipPath>
</defs>
</svg>
